<svg xmlns="http://www.w3.org/2000/svg" xmlns:xlink="http://www.w3.org/1999/xlink" width="32.304" height="63.12" viewBox="0 -49.296 32.304 63.12"><symbol id="myfont_55" width="8.796" height="15.78" viewBox="0 -12.324 8.796 15.78"><path d="M 8.796 -7.44 C 8.292 -7.128 7.872 -7.02 7.2 -7.02 L 5.592 -7.032 C 4.296 -7.032 3.54 -6.84 2.88 -6.372 C 2.208 -5.88 1.8 -5.04 1.8 -4.164 C 1.8 -3.876 1.836 -3.672 1.956 -3.24 L 2.964 -3.696 C 2.772 -4.26 2.724 -4.524 2.724 -4.884 C 2.724 -5.964 3.432 -6.636 4.548 -6.636 C 4.692 -6.636 4.896 -6.624 5.124 -6.6 L 4.356 -3.516 L 3.924 -2.964 L 4.224 -2.964 L 3.9 -1.68 C 3.42 0.24 3.132 0.576 1.992 0.576 L 1.188 0.552 L 0.72 1.332 C 0.972 1.356 1.188 1.368 1.32 1.368 C 2.04 1.368 2.556 1.14 3.348 0.492 C 4.224 -0.216 4.536 -0.732 4.824 -1.872 L 5.112 -3.024 C 5.796 -3.06 6.36 -3.096 6.396 -3.108 C 6.732 -3.156 6.828 -3.216 7.128 -3.516 L 5.232 -3.516 L 6 -6.6 L 7.92 -6.552 C 8.076 -6.684 8.424 -6.948 8.676 -7.104 C 8.736 -7.248 8.748 -7.272 8.796 -7.44 Z " /></symbol><g transform=""><use href="#myfont_55" transform="translate(0 -49.296) scale(4)" /></g></svg>