<?xml version="1.0" standalone="no"?>
<!DOCTYPE svg PUBLIC "-//W3C//DTD SVG 20010904//EN"
 "http://www.w3.org/TR/2001/REC-SVG-20010904/DTD/svg10.dtd">
<svg version="1.0" xmlns="http://www.w3.org/2000/svg"
 width="700.000000pt" height="700.000000pt" viewBox="0 0 700.000000 700.000000"
 preserveAspectRatio="xMidYMid meet">
<metadata>
Created by potrace 1.14, written by Peter Selinger 2001-2017
</metadata>
<g transform="translate(0.000000,700.000000) scale(0.100000,-0.100000)"
fill="#000000" stroke="none">
<path d="M5894 6120 c-18 -18 -220 -117 -291 -143 -104 -38 -186 -59 -283 -72
-30 -4 -66 -10 -80 -13 -14 -3 -367 -6 -785 -7 -418 -1 -798 -5 -845 -9 -215
-16 -250 -20 -480 -60 -56 -9 -230 -59 -310 -88 -178 -64 -398 -191 -529 -306
-365 -319 -566 -783 -555 -1282 3 -158 11 -211 58 -398 14 -56 26 -105 26
-107 0 -13 38 1 166 59 188 86 219 100 289 131 33 14 81 35 107 47 l46 21 -14
46 c-106 332 -127 446 -126 678 1 391 163 701 458 880 97 58 283 121 414 140
103 14 540 6 557 -11 2 -1 -11 -51 -27 -112 -16 -60 -31 -120 -34 -134 -2 -14
-93 -378 -201 -810 l-196 -785 -125 -159 c-69 -88 -121 -162 -115 -165 5 -3
41 -5 80 -5 39 1 71 -2 71 -7 0 -5 -16 -75 -36 -155 -20 -81 -37 -154 -39
-163 -2 -9 -11 -45 -20 -81 -9 -36 -18 -72 -20 -80 -2 -8 -26 -109 -55 -225
-226 -919 -383 -1224 -691 -1339 -148 -56 -347 -69 -798 -55 l-145 4 -138
-229 c-75 -127 -136 -231 -134 -233 9 -9 183 -17 351 -17 170 0 256 6 307 20
9 3 25 6 35 8 166 32 365 122 553 249 110 74 310 227 407 312 137 120 242 225
358 358 62 72 154 216 214 335 49 97 133 312 146 372 2 8 15 55 29 104 14 48
28 98 30 110 3 11 34 138 70 281 37 143 68 269 70 280 11 50 47 179 51 184 3
2 24 6 48 7 171 7 396 21 637 40 173 13 293 51 374 118 43 36 136 124 136 130
0 2 -252 3 -560 2 -513 -1 -560 0 -560 15 0 9 12 61 26 115 14 55 27 108 30
118 6 29 253 1026 264 1065 5 19 37 146 71 283 l61 248 162 -5 c88 -2 260 -7
381 -10 121 -3 306 -8 411 -10 l191 -5 74 58 c101 79 209 158 302 221 47 31
82 63 89 79 6 15 14 36 19 47 16 40 40 118 36 121 -2 2 -8 0 -13 -6z"/>
</g>
</svg>
